<svg width="24" height="25" viewBox="0 0 24 25" fill="none" xmlns="http://www.w3.org/2000/svg">
<g id="Bag 2">
<g id="Iconly/Light-Outline/Bag-2">
<g id="Bag-2">
<path id="Combined-Shape" fill-rule="evenodd" clip-rule="evenodd" d="M11.7541 2.30396C14.2284 2.30396 16.2459 4.30682 16.2728 6.77784L16.492 6.77885C19.254 6.77885 21.5 9.02386 21.5 11.7839V17.2999C21.5 20.0589 19.254 22.3039 16.492 22.3039H7.008C4.247 22.3039 2 20.0589 2 17.2999V11.7839C2 9.02386 4.247 6.77885 7.008 6.77885L7.212 6.77796L7.21834 6.58348C7.28114 5.44902 7.74837 4.40829 8.5501 3.61496C9.4081 2.76396 10.5601 2.33896 11.7541 2.30396ZM16.492 8.27885L16.273 8.27796L16.2731 9.85995C16.2731 10.274 15.9371 10.61 15.5231 10.61C15.1091 10.61 14.7731 10.274 14.7731 9.85995L14.773 8.27796H8.711L8.7111 9.85995C8.7111 10.274 8.3751 10.61 7.9611 10.61C7.5471 10.61 7.2111 10.274 7.2111 9.85995L7.211 8.27796L7.008 8.27885C5.074 8.27885 3.5 9.85086 3.5 11.7839V17.2999C3.5 19.2319 5.074 20.8039 7.008 20.8039H16.492C18.426 20.8039 20 19.2319 20 17.2999V11.7839C20 9.85086 18.426 8.27885 16.492 8.27885ZM11.7511 3.80396C10.9401 3.83196 10.1801 4.11195 9.6061 4.67996C9.04043 5.2407 8.72338 5.98403 8.71143 6.77786L14.771 6.77796L14.768 6.65058C14.6759 5.06576 13.3586 3.80396 11.7511 3.80396Z" fill="#F5F7FB"/>
</g>
</g>
</g>
</svg>
