<svg width="24" height="24" viewBox="0 0 24 24" fill="none" xmlns="http://www.w3.org/2000/svg">
<g id="Bag 2">
<g id="Iconly/Light-Outline/Bag-2">
<g id="Bag-2">
<path id="Combined-Shape" fill-rule="evenodd" clip-rule="evenodd" d="M11.7539 1.99969C14.2282 1.99969 16.2457 4.00256 16.2726 6.47358L16.4918 6.47459C19.2538 6.47459 21.4998 8.71959 21.4998 11.4796V16.9956C21.4998 19.7546 19.2538 21.9996 16.4918 21.9996H7.00779C4.24679 21.9996 1.99979 19.7546 1.99979 16.9956V11.4796C1.99979 8.71959 4.24679 6.47459 7.00779 6.47459L7.21179 6.47369L7.21813 6.27922C7.28093 5.14476 7.74815 4.10403 8.54989 3.31069C9.40789 2.45969 10.5599 2.03469 11.7539 1.99969ZM16.4918 7.97459L16.2728 7.97369L16.2729 9.55569C16.2729 9.96969 15.9369 10.3057 15.5229 10.3057C15.1089 10.3057 14.7729 9.96969 14.7729 9.55569L14.7728 7.97369H8.71079L8.71089 9.55569C8.71089 9.96969 8.37489 10.3057 7.96089 10.3057C7.54689 10.3057 7.21089 9.96969 7.21089 9.55569L7.21079 7.97369L7.00779 7.97459C5.07379 7.97459 3.49979 9.5466 3.49979 11.4796V16.9956C3.49979 18.9276 5.07379 20.4996 7.00779 20.4996H16.4918C18.4258 20.4996 19.9998 18.9276 19.9998 16.9956V11.4796C19.9998 9.5466 18.4258 7.97459 16.4918 7.97459ZM11.7509 3.49969C10.9399 3.52769 10.1799 3.80769 9.60589 4.37569C9.04022 4.93644 8.72317 5.67976 8.71122 6.4736L14.7708 6.47369L14.7677 6.34632C14.6757 4.7615 13.3584 3.49969 11.7509 3.49969Z" fill="#F5F7FB"/>
</g>
</g>
</g>
</svg>
