<svg width="25" height="25" viewBox="0 0 25 25" fill="none" xmlns="http://www.w3.org/2000/svg">
<g id="clarity:inbox-line" clip-path="url(#clip0_0_179)">
<path id="Vector" d="M8.49305 9.09029C8.36371 9.2204 8.29111 9.39641 8.29111 9.57987C8.29111 9.76334 8.36371 9.93934 8.49305 10.0695L12.5 14.0972L16.5208 10.0764C16.6346 9.94355 16.694 9.77267 16.6873 9.59789C16.6805 9.42312 16.6081 9.25733 16.4844 9.13365C16.3607 9.00997 16.1949 8.93752 16.0202 8.93077C15.8454 8.92402 15.6745 8.98347 15.5417 9.09724L13.1944 11.4375V1.3889C13.1944 1.20472 13.1213 1.02809 12.991 0.897856C12.8608 0.767622 12.6842 0.694458 12.5 0.694458C12.3158 0.694458 12.1392 0.767622 12.0089 0.897856C11.8787 1.02809 11.8055 1.20472 11.8055 1.3889V11.4583L9.45832 9.11112C9.33156 8.98313 9.16001 8.9094 8.9799 8.90551C8.79979 8.90162 8.62522 8.96788 8.49305 9.09029Z" fill="#F5F7FB"/>
<path id="Vector_2" d="M20.4861 3.47223H15.2778V4.86112H20.1389V14.5833H16.3958L16.3264 15.2014C16.2215 16.1197 15.7824 16.9674 15.0928 17.5827C14.4031 18.1981 13.5111 18.5382 12.5868 18.5382C11.6625 18.5382 10.7705 18.1981 10.0809 17.5827C9.39121 16.9674 8.9521 16.1197 8.84723 15.2014L8.77778 14.5833H4.86112V4.86112H9.72223V3.47223H4.5139C4.23763 3.47223 3.97268 3.58198 3.77733 3.77733C3.58198 3.97268 3.47223 4.23763 3.47223 4.5139V21.875C3.47223 22.1513 3.58198 22.4162 3.77733 22.6116C3.97268 22.8069 4.23763 22.9167 4.5139 22.9167H20.4861C20.7624 22.9167 21.0273 22.8069 21.2227 22.6116C21.418 22.4162 21.5278 22.1513 21.5278 21.875V4.5139C21.5278 4.23763 21.418 3.97268 21.2227 3.77733C21.0273 3.58198 20.7624 3.47223 20.4861 3.47223ZM20.1389 21.5278H4.86112V15.9722H7.5764C7.8439 17.1009 8.48443 18.1064 9.39434 18.8259C10.3042 19.5453 11.4303 19.9367 12.5903 19.9367C13.7503 19.9367 14.8763 19.5453 15.7862 18.8259C16.6961 18.1064 17.3367 17.1009 17.6042 15.9722H20.1389V21.5278Z" fill="#F5F7FB"/>
</g>
<defs>
<clipPath id="clip0_0_179">
<rect width="25" height="25" fill="white"/>
</clipPath>
</defs>
</svg>
