<svg width="26" height="26" viewBox="0 0 26 26" fill="none" xmlns="http://www.w3.org/2000/svg">
<g clip-path="url(#clip0_339_473)">
<path d="M9.14481 9.4432C9.01547 9.57331 8.94287 9.74932 8.94287 9.93278C8.94287 10.1162 9.01547 10.2922 9.14481 10.4224L13.1518 14.4501L17.1726 10.4293C17.2864 10.2965 17.3458 10.1256 17.3391 9.9508C17.3323 9.77602 17.2599 9.61023 17.1362 9.48656C17.0125 9.36288 16.8467 9.29043 16.6719 9.28367C16.4972 9.27692 16.3263 9.33637 16.1934 9.45014L13.8462 11.7904V1.74181C13.8462 1.55763 13.773 1.38099 13.6428 1.25076C13.5126 1.12053 13.3359 1.04736 13.1518 1.04736C12.9676 1.04736 12.7909 1.12053 12.6607 1.25076C12.5305 1.38099 12.4573 1.55763 12.4573 1.74181V11.8113L10.1101 9.46403C9.98332 9.33603 9.81177 9.2623 9.63166 9.25842C9.45155 9.25453 9.27698 9.32079 9.14481 9.4432Z" fill="#F5F7FB"/>
<path d="M21.1379 3.82507H15.9296V5.21396H20.7907V14.9362H17.0476L16.9782 15.5542C16.8733 16.4726 16.4342 17.3202 15.7445 17.9356C15.0549 18.551 14.1629 18.8911 13.2386 18.8911C12.3143 18.8911 11.4223 18.551 10.7327 17.9356C10.043 17.3202 9.60389 16.4726 9.49902 15.5542L9.42958 14.9362H5.51291V5.21396H10.374V3.82507H5.16569C4.88942 3.82507 4.62447 3.93482 4.42912 4.13017C4.23377 4.32552 4.12402 4.59047 4.12402 4.86674V22.2279C4.12402 22.5041 4.23377 22.7691 4.42912 22.9644C4.62447 23.1598 4.88942 23.2695 5.16569 23.2695H21.1379C21.4142 23.2695 21.6791 23.1598 21.8745 22.9644C22.0698 22.7691 22.1796 22.5041 22.1796 22.2279V4.86674C22.1796 4.59047 22.0698 4.32552 21.8745 4.13017C21.6791 3.93482 21.4142 3.82507 21.1379 3.82507ZM20.7907 21.8806H5.51291V16.3251H8.22819C8.4957 17.4538 9.13623 18.4592 10.0461 19.1787C10.956 19.8982 12.0821 20.2896 13.2421 20.2896C14.4021 20.2896 15.5281 19.8982 16.438 19.1787C17.3479 18.4592 17.9885 17.4538 18.256 16.3251H20.7907V21.8806Z" fill="#F5F7FB"/>
</g>
<defs>
<clipPath id="clip0_339_473">
<rect width="25" height="25" fill="white" transform="translate(0.651855 0.352905)"/>
</clipPath>
</defs>
</svg>
