<svg width="24" height="24" viewBox="0 0 24 24" fill="none" xmlns="http://www.w3.org/2000/svg">
<g id="fluent-mdl2:site-scan">
<path id="Vector" d="M24 1.5V13.582C23.7812 13.3633 23.5469 13.168 23.2969 12.9961C23.0469 12.8242 22.7812 12.668 22.5 12.5273V7.5H1.5V19.5H14.25L12.75 21H0V1.5H24ZM22.5 6V3H1.5V6H22.5ZM16.5352 17.1797C16.5352 16.6641 16.6328 16.1836 16.8281 15.7383C17.0234 15.293 17.2891 14.9062 17.625 14.5781C17.9609 14.25 18.3516 13.9883 18.7969 13.793C19.2422 13.5977 19.7266 13.5039 20.25 13.5117C20.7734 13.5117 21.2617 13.6094 21.7148 13.8047C22.168 14 22.5625 14.2656 22.8984 14.6016C23.2344 14.9375 23.5 15.3359 23.6953 15.7969C23.8906 16.2578 23.9883 16.7461 23.9883 17.2617C23.9883 17.7695 23.8945 18.2461 23.707 18.6914C23.5195 19.1367 23.2578 19.5312 22.9219 19.875C22.5859 20.2188 22.1992 20.4844 21.7617 20.6719C21.3242 20.8594 20.8438 20.957 20.3203 20.9648C19.9453 20.9648 19.5781 20.9141 19.2188 20.8125C18.8594 20.7109 18.5195 20.5586 18.1992 20.3555L15.8438 22.7109C15.6641 22.8906 15.4883 23.0703 15.3164 23.25C15.1445 23.4297 14.9648 23.6055 14.7773 23.7773C14.6992 23.8477 14.625 23.9023 14.5547 23.9414C14.4844 23.9805 14.3906 24 14.2734 24C14.0703 24 13.8906 23.9219 13.7344 23.7656C13.5781 23.6094 13.5 23.4297 13.5 23.2266C13.5 23.1172 13.5195 23.0273 13.5586 22.957C13.5977 22.8867 13.6523 22.8086 13.7227 22.7227C13.8867 22.5352 14.0586 22.3555 14.2383 22.1836C14.418 22.0117 14.6016 21.8359 14.7891 21.6562C15.1875 21.2578 15.5781 20.8633 15.9609 20.4727C16.3438 20.082 16.7383 19.6875 17.1445 19.2891C16.9492 18.9688 16.8008 18.6328 16.6992 18.2812C16.5977 17.9297 16.543 17.5625 16.5352 17.1797ZM18.0352 17.3203C18.0352 17.6172 18.0898 17.8945 18.1992 18.1523C18.3086 18.4102 18.4609 18.6367 18.6562 18.832C18.8516 19.0273 19.0781 19.1797 19.3359 19.2891C19.5938 19.3984 19.875 19.4531 20.1797 19.4531C20.4844 19.4531 20.7734 19.3945 21.0469 19.2773C21.3203 19.1602 21.5703 18.9922 21.7969 18.7734C22.0234 18.5547 22.1953 18.3125 22.3125 18.0469C22.4297 17.7812 22.4961 17.4922 22.5117 17.1797C22.5117 16.8984 22.4531 16.6289 22.3359 16.3711C22.2188 16.1133 22.0547 15.8789 21.8438 15.668C21.6328 15.457 21.3984 15.293 21.1406 15.1758C20.8828 15.0586 20.6094 14.9961 20.3203 14.9883C20.0156 14.9883 19.7266 15.0508 19.4531 15.1758C19.1797 15.3008 18.9375 15.4766 18.7266 15.7031C18.5156 15.9297 18.3477 16.1758 18.2227 16.4414C18.0977 16.707 18.0352 17 18.0352 17.3203Z" fill="#F5F7FB"/>
</g>
</svg>
