<svg width="25" height="25" viewBox="0 0 25 25" fill="none" xmlns="http://www.w3.org/2000/svg">
<g id="fluent-mdl2:site-scan" clip-path="url(#clip0_339_510)">
<path id="Vector" d="M24.6519 1.85547V13.9375C24.4331 13.7188 24.1987 13.5234 23.9487 13.3516C23.6987 13.1797 23.4331 13.0234 23.1519 12.8828V7.85547H2.15186V19.8555H14.9019L13.4019 21.3555H0.651855V1.85547H24.6519ZM23.1519 6.35547V3.35547H2.15186V6.35547H23.1519ZM17.187 17.5352C17.187 17.0195 17.2847 16.5391 17.48 16.0938C17.6753 15.6484 17.9409 15.2617 18.2769 14.9336C18.6128 14.6055 19.0034 14.3438 19.4487 14.1484C19.894 13.9531 20.3784 13.8594 20.9019 13.8672C21.4253 13.8672 21.9136 13.9648 22.3667 14.1602C22.8198 14.3555 23.2144 14.6211 23.5503 14.957C23.8862 15.293 24.1519 15.6914 24.3472 16.1523C24.5425 16.6133 24.6401 17.1016 24.6401 17.6172C24.6401 18.125 24.5464 18.6016 24.3589 19.0469C24.1714 19.4922 23.9097 19.8867 23.5737 20.2305C23.2378 20.5742 22.8511 20.8398 22.4136 21.0273C21.9761 21.2148 21.4956 21.3125 20.9722 21.3203C20.5972 21.3203 20.23 21.2695 19.8706 21.168C19.5112 21.0664 19.1714 20.9141 18.8511 20.7109L16.4956 23.0664C16.3159 23.2461 16.1401 23.4258 15.9683 23.6055C15.7964 23.7852 15.6167 23.9609 15.4292 24.1328C15.3511 24.2031 15.2769 24.2578 15.2065 24.2969C15.1362 24.3359 15.0425 24.3555 14.9253 24.3555C14.7222 24.3555 14.5425 24.2773 14.3862 24.1211C14.23 23.9648 14.1519 23.7852 14.1519 23.582C14.1519 23.4727 14.1714 23.3828 14.2104 23.3125C14.2495 23.2422 14.3042 23.1641 14.3745 23.0781C14.5386 22.8906 14.7104 22.7109 14.8901 22.5391C15.0698 22.3672 15.2534 22.1914 15.4409 22.0117C15.8394 21.6133 16.23 21.2188 16.6128 20.8281C16.9956 20.4375 17.3901 20.043 17.7964 19.6445C17.6011 19.3242 17.4526 18.9883 17.3511 18.6367C17.2495 18.2852 17.1948 17.918 17.187 17.5352ZM18.687 17.6758C18.687 17.9727 18.7417 18.25 18.8511 18.5078C18.9604 18.7656 19.1128 18.9922 19.3081 19.1875C19.5034 19.3828 19.73 19.5352 19.9878 19.6445C20.2456 19.7539 20.5269 19.8086 20.8315 19.8086C21.1362 19.8086 21.4253 19.75 21.6987 19.6328C21.9722 19.5156 22.2222 19.3477 22.4487 19.1289C22.6753 18.9102 22.8472 18.668 22.9644 18.4023C23.0815 18.1367 23.1479 17.8477 23.1636 17.5352C23.1636 17.2539 23.105 16.9844 22.9878 16.7266C22.8706 16.4688 22.7065 16.2344 22.4956 16.0234C22.2847 15.8125 22.0503 15.6484 21.7925 15.5312C21.5347 15.4141 21.2612 15.3516 20.9722 15.3438C20.6675 15.3438 20.3784 15.4062 20.105 15.5312C19.8315 15.6562 19.5894 15.832 19.3784 16.0586C19.1675 16.2852 18.9995 16.5312 18.8745 16.7969C18.7495 17.0625 18.687 17.3555 18.687 17.6758Z" fill="#F5F7FB"/>
</g>
<defs>
<clipPath id="clip0_339_510">
<rect width="24" height="24" fill="white" transform="translate(0.651855 0.355469)"/>
</clipPath>
</defs>
</svg>
