<svg width="21" height="22" viewBox="0 0 21 22" fill="none" xmlns="http://www.w3.org/2000/svg">
<g id="Group">
<path id="Vector" fill-rule="evenodd" clip-rule="evenodd" d="M10.1785 7.25C9.18394 7.25 8.23011 7.64509 7.52685 8.34835C6.82359 9.05161 6.4285 10.0054 6.4285 11C6.4285 11.9946 6.82359 12.9484 7.52685 13.6517C8.23011 14.3549 9.18394 14.75 10.1785 14.75C11.1731 14.75 12.1269 14.3549 12.8301 13.6517C13.5334 12.9484 13.9285 11.9946 13.9285 11C13.9285 10.0054 13.5334 9.05161 12.8301 8.34835C12.1269 7.64509 11.1731 7.25 10.1785 7.25ZM7.9285 11C7.9285 10.4033 8.16555 9.83097 8.58751 9.40901C9.00946 8.98705 9.58176 8.75 10.1785 8.75C10.7752 8.75 11.3475 8.98705 11.7695 9.40901C12.1914 9.83097 12.4285 10.4033 12.4285 11C12.4285 11.5967 12.1914 12.169 11.7695 12.591C11.3475 13.0129 10.7752 13.25 10.1785 13.25C9.58176 13.25 9.00946 13.0129 8.58751 12.591C8.16555 12.169 7.9285 11.5967 7.9285 11Z" fill="#F5F7FB"/>
<path id="Vector_2" fill-rule="evenodd" clip-rule="evenodd" d="M10.1535 0.25C9.70849 0.25 9.33749 0.25 9.03349 0.27C8.72275 0.28294 8.41629 0.347138 8.12649 0.46C7.79274 0.59809 7.48946 0.800573 7.23397 1.05589C6.97849 1.3112 6.7758 1.61434 6.63749 1.948C6.49249 2.298 6.45349 2.668 6.43749 3.07C6.43589 3.21702 6.39697 3.36123 6.32438 3.48909C6.25179 3.61695 6.14791 3.72428 6.02249 3.801C5.89337 3.8715 5.74845 3.90803 5.60134 3.90716C5.45423 3.90628 5.30976 3.86803 5.18149 3.796C4.82549 3.608 4.48549 3.457 4.10949 3.407C3.75143 3.3599 3.3876 3.38379 3.03878 3.4773C2.68996 3.57081 2.36297 3.73212 2.07649 3.952C1.83426 4.14688 1.6258 4.38034 1.45949 4.643C1.28949 4.897 1.10349 5.218 0.881486 5.603L0.856486 5.647C0.633486 6.032 0.448486 6.353 0.314486 6.627C0.174486 6.913 0.0644857 7.195 0.0244857 7.507C-0.070914 8.22999 0.124765 8.96127 0.568486 9.54C0.799486 9.841 1.10049 10.06 1.44049 10.274C1.56725 10.3489 1.67286 10.4549 1.74738 10.5819C1.8219 10.7089 1.86289 10.8528 1.86649 11C1.86289 11.1472 1.8219 11.2911 1.74738 11.4181C1.67286 11.5451 1.56725 11.6511 1.44049 11.726C1.10049 11.94 0.800486 12.159 0.568486 12.46C0.348602 12.7465 0.1873 13.0735 0.0937888 13.4223C0.000277437 13.7711 -0.0236115 14.1349 0.0234858 14.493C0.0644858 14.805 0.173486 15.087 0.313486 15.373C0.448486 15.647 0.633486 15.968 0.856486 16.353L0.881486 16.397C1.10349 16.782 1.28949 17.103 1.45949 17.357C1.63649 17.62 1.82649 17.857 2.07649 18.047C2.3629 18.2671 2.68985 18.4285 3.03867 18.5222C3.3875 18.6159 3.75136 18.64 4.10949 18.593C4.48549 18.543 4.82549 18.393 5.18149 18.204C5.3096 18.1321 5.45391 18.0939 5.60084 18.093C5.74777 18.0921 5.89252 18.1286 6.02149 18.199C6.1476 18.2751 6.25214 18.3823 6.32513 18.5102C6.39812 18.6382 6.43715 18.7827 6.43849 18.93C6.45349 19.332 6.49249 19.702 6.63849 20.052C6.77658 20.3857 6.97906 20.689 7.23437 20.9445C7.48969 21.2 7.79283 21.4027 8.12649 21.541C8.41649 21.661 8.71649 21.708 9.03349 21.729C9.33749 21.75 9.70849 21.75 10.1535 21.75H10.2035C10.6485 21.75 11.0195 21.75 11.3235 21.73C11.6415 21.708 11.9405 21.661 12.2305 21.54C12.5642 21.4019 12.8675 21.1994 13.123 20.9441C13.3785 20.6888 13.5812 20.3857 13.7195 20.052C13.8645 19.702 13.9035 19.332 13.9195 18.93C13.9209 18.7828 13.9598 18.6384 14.0324 18.5103C14.105 18.3823 14.2089 18.2748 14.3345 18.198C14.4637 18.1276 14.6087 18.0913 14.7558 18.0923C14.9029 18.0934 15.0473 18.1318 15.1755 18.204C15.5315 18.392 15.8715 18.543 16.2475 18.592C16.9705 18.6874 17.7018 18.4917 18.2805 18.048C18.5305 17.856 18.7205 17.62 18.8975 17.357C19.0675 17.103 19.2535 16.782 19.4755 16.397L19.5005 16.353C19.7235 15.968 19.9085 15.647 20.0425 15.373C20.1825 15.087 20.2925 14.804 20.3325 14.493C20.4279 13.77 20.2322 13.0387 19.7885 12.46C19.5575 12.159 19.2565 11.94 18.9165 11.726C18.7897 11.6511 18.6841 11.5451 18.6096 11.4181C18.5351 11.2911 18.4941 11.1472 18.4905 11C18.4905 10.722 18.6425 10.446 18.9165 10.274C19.2565 10.06 19.5565 9.841 19.7885 9.54C20.0084 9.25352 20.1697 8.92653 20.2632 8.5777C20.3567 8.22888 20.3806 7.86506 20.3335 7.507C20.2859 7.19971 20.1879 6.90238 20.0435 6.627C19.8728 6.29475 19.6917 5.96792 19.5005 5.647L19.4755 5.603C19.2928 5.27709 19.1001 4.95693 18.8975 4.643C18.7312 4.38062 18.5227 4.14749 18.2805 3.953C17.9941 3.73294 17.6671 3.57146 17.3183 3.47778C16.9695 3.38409 16.6056 3.36004 16.2475 3.407C15.8715 3.457 15.5315 3.607 15.1755 3.796C15.0473 3.86786 14.903 3.90601 14.7561 3.90688C14.6092 3.90776 14.4645 3.87132 14.3355 3.801C14.2097 3.72452 14.1054 3.6173 14.0325 3.48942C13.9595 3.36154 13.9203 3.21721 13.9185 3.07C13.9035 2.668 13.8645 2.298 13.7185 1.948C13.5804 1.61425 13.3779 1.31097 13.1226 1.05549C12.8673 0.800001 12.5641 0.597314 12.2305 0.459C11.9405 0.339 11.6405 0.292 11.3235 0.271C11.0195 0.25 10.6485 0.25 10.2035 0.25H10.1535ZM8.70049 1.845C8.77749 1.813 8.89449 1.784 9.13549 1.767C9.38249 1.75 9.70249 1.75 10.1785 1.75C10.6545 1.75 10.9745 1.75 11.2215 1.767C11.4625 1.784 11.5795 1.813 11.6565 1.845C11.9635 1.972 12.2065 2.215 12.3335 2.522C12.3735 2.618 12.4065 2.769 12.4195 3.126C12.4495 3.918 12.8585 4.681 13.5845 5.1C14.3105 5.52 15.1755 5.492 15.8765 5.122C16.1925 4.955 16.3395 4.908 16.4435 4.895C16.7721 4.85158 17.1044 4.94043 17.3675 5.142C17.4335 5.193 17.5175 5.28 17.6525 5.48C17.7915 5.686 17.9515 5.963 18.1895 6.375C18.4275 6.787 18.5865 7.065 18.6955 7.287C18.8025 7.504 18.8355 7.62 18.8455 7.703C18.8889 8.03157 18.8001 8.36392 18.5985 8.627C18.5345 8.71 18.4205 8.814 18.1185 9.004C17.4465 9.426 16.9905 10.162 16.9905 11C16.9905 11.838 17.4465 12.574 18.1185 12.996C18.4205 13.186 18.5345 13.29 18.5985 13.373C18.8005 13.636 18.8885 13.968 18.8455 14.297C18.8355 14.38 18.8015 14.497 18.6955 14.713C18.5865 14.936 18.4275 15.213 18.1895 15.625C17.9515 16.037 17.7905 16.314 17.6525 16.52C17.5175 16.72 17.4335 16.807 17.3675 16.858C17.1044 17.0596 16.7721 17.1484 16.4435 17.105C16.3395 17.092 16.1935 17.045 15.8765 16.878C15.1765 16.508 14.3105 16.48 13.5845 16.899C12.8585 17.319 12.4495 18.082 12.4195 18.874C12.4065 19.231 12.3735 19.382 12.3335 19.478C12.2707 19.6298 12.1785 19.7677 12.0624 19.8839C11.9462 20.0001 11.8083 20.0922 11.6565 20.155C11.5795 20.187 11.4625 20.216 11.2215 20.233C10.9745 20.25 10.6545 20.25 10.1785 20.25C9.70249 20.25 9.38249 20.25 9.13549 20.233C8.89449 20.216 8.77749 20.187 8.70049 20.155C8.54869 20.0922 8.41076 20.0001 8.2946 19.8839C8.17843 19.7677 8.08631 19.6298 8.02349 19.478C7.98349 19.382 7.95049 19.231 7.93749 18.874C7.90749 18.082 7.49849 17.319 6.77249 16.9C6.04649 16.48 5.18149 16.508 4.48049 16.878C4.16449 17.045 4.01749 17.092 3.91349 17.105C3.58492 17.1484 3.25256 17.0596 2.98949 16.858C2.92349 16.807 2.83949 16.72 2.70449 16.52C2.5164 16.2272 2.33731 15.9287 2.16749 15.625C1.92949 15.213 1.77049 14.935 1.66149 14.713C1.55449 14.496 1.52149 14.38 1.51149 14.297C1.46807 13.9684 1.55691 13.6361 1.75849 13.373C1.82249 13.29 1.93649 13.186 2.23849 12.996C2.91049 12.574 3.36649 11.838 3.36649 11C3.36649 10.162 2.91049 9.426 2.23849 9.004C1.93649 8.814 1.82249 8.71 1.75849 8.627C1.55691 8.36392 1.46807 8.03157 1.51149 7.703C1.52149 7.62 1.55549 7.503 1.66149 7.287C1.77049 7.064 1.92949 6.787 2.16749 6.375C2.40549 5.963 2.56649 5.686 2.70449 5.48C2.83949 5.28 2.92349 5.193 2.98949 5.142C3.25256 4.94043 3.58492 4.85158 3.91349 4.895C4.01749 4.908 4.16349 4.955 4.48049 5.122C5.18049 5.492 6.04649 5.52 6.77249 5.1C7.49849 4.681 7.90749 3.918 7.93749 3.126C7.95049 2.769 7.98349 2.618 8.02349 2.522C8.15049 2.215 8.39349 1.972 8.70049 1.845Z" fill="#F5F7FB"/>
</g>
</svg>
