<svg width="21" height="22" viewBox="0 0 21 22" fill="none" xmlns="http://www.w3.org/2000/svg">
<g id="Group">
<path id="Vector" fill-rule="evenodd" clip-rule="evenodd" d="M10.8306 7.18164C9.836 7.18164 8.88218 7.57673 8.17892 8.27999C7.47565 8.98325 7.08057 9.93708 7.08057 10.9316C7.08057 11.9262 7.47565 12.88 8.17892 13.5833C8.88218 14.2866 9.836 14.6816 10.8306 14.6816C11.8251 14.6816 12.779 14.2866 13.4822 13.5833C14.1855 12.88 14.5806 11.9262 14.5806 10.9316C14.5806 9.93708 14.1855 8.98325 13.4822 8.27999C12.779 7.57673 11.8251 7.18164 10.8306 7.18164ZM8.58057 10.9316C8.58057 10.3349 8.81762 9.76261 9.23958 9.34065C9.66153 8.91869 10.2338 8.68164 10.8306 8.68164C11.4273 8.68164 11.9996 8.91869 12.4216 9.34065C12.8435 9.76261 13.0806 10.3349 13.0806 10.9316C13.0806 11.5284 12.8435 12.1007 12.4216 12.5226C11.9996 12.9446 11.4273 13.1816 10.8306 13.1816C10.2338 13.1816 9.66153 12.9446 9.23958 12.5226C8.81762 12.1007 8.58057 11.5284 8.58057 10.9316Z" fill="#F5F7FB"/>
<path id="Vector_2" fill-rule="evenodd" clip-rule="evenodd" d="M10.8053 0.181641C10.3603 0.181641 9.98934 0.181641 9.68534 0.201641C9.37461 0.21458 9.06814 0.278778 8.77834 0.391641C8.44459 0.52973 8.14131 0.732214 7.88583 0.987528C7.63034 1.24284 7.42765 1.54598 7.28934 1.87964C7.14434 2.22964 7.10534 2.59964 7.08934 3.00164C7.08774 3.14866 7.04882 3.29287 6.97623 3.42073C6.90364 3.54859 6.79976 3.65592 6.67434 3.73264C6.54522 3.80314 6.40031 3.83967 6.2532 3.8388C6.10609 3.83792 5.96161 3.79967 5.83334 3.72764C5.47734 3.53964 5.13734 3.38864 4.76134 3.33864C4.40329 3.29154 4.03946 3.31543 3.69064 3.40894C3.34181 3.50245 3.01483 3.66376 2.72834 3.88364C2.48612 4.07852 2.27766 4.31198 2.11134 4.57464C1.94134 4.82864 1.75534 5.14964 1.53334 5.53464L1.50834 5.57864C1.28534 5.96364 1.10034 6.28464 0.966341 6.55864C0.826341 6.84464 0.716341 7.12664 0.676341 7.43864C0.580941 8.16163 0.776621 8.89291 1.22034 9.47164C1.45134 9.77264 1.75234 9.99164 2.09234 10.2056C2.2191 10.2806 2.32471 10.3865 2.39924 10.5135C2.47376 10.6406 2.51475 10.7844 2.51834 10.9316C2.51475 11.0789 2.47376 11.2227 2.39924 11.3497C2.32471 11.4767 2.2191 11.5827 2.09234 11.6576C1.75234 11.8716 1.45234 12.0906 1.22034 12.3916C1.00046 12.6781 0.839156 13.0051 0.745644 13.3539C0.652133 13.7028 0.628244 14.0666 0.675341 14.4246C0.716341 14.7366 0.825341 15.0186 0.965341 15.3046C1.10034 15.5786 1.28534 15.8996 1.50834 16.2846L1.53334 16.3286C1.75534 16.7136 1.94134 17.0346 2.11134 17.2886C2.28834 17.5516 2.47834 17.7886 2.72834 17.9786C3.01475 18.1987 3.3417 18.3602 3.69053 18.4539C4.03936 18.5475 4.40322 18.5716 4.76134 18.5246C5.13734 18.4746 5.47734 18.3246 5.83334 18.1356C5.96146 18.0637 6.10576 18.0255 6.2527 18.0246C6.39963 18.0237 6.54438 18.0602 6.67334 18.1306C6.79946 18.2068 6.90399 18.3139 6.97699 18.4419C7.04998 18.5698 7.089 18.7143 7.09034 18.8616C7.10534 19.2636 7.14434 19.6336 7.29034 19.9836C7.42843 20.3174 7.63091 20.6207 7.88623 20.8762C8.14154 21.1316 8.44468 21.3343 8.77834 21.4726C9.06834 21.5926 9.36834 21.6396 9.68534 21.6606C9.98934 21.6816 10.3603 21.6816 10.8053 21.6816H10.8553C11.3003 21.6816 11.6713 21.6816 11.9753 21.6616C12.2933 21.6396 12.5923 21.5926 12.8823 21.4716C13.2161 21.3336 13.5194 21.1311 13.7749 20.8758C14.0303 20.6204 14.233 20.3173 14.3713 19.9836C14.5163 19.6336 14.5553 19.2636 14.5713 18.8616C14.5728 18.7145 14.6116 18.57 14.6842 18.442C14.7568 18.3139 14.8608 18.2065 14.9863 18.1296C15.1155 18.0593 15.2605 18.0229 15.4076 18.024C15.5547 18.025 15.6992 18.0635 15.8273 18.1356C16.1833 18.3236 16.5233 18.4746 16.8993 18.5236C17.6223 18.619 18.3536 18.4234 18.9323 17.9796C19.1823 17.7876 19.3723 17.5516 19.5493 17.2886C19.7193 17.0346 19.9053 16.7136 20.1273 16.3286L20.1523 16.2846C20.3753 15.8996 20.5603 15.5786 20.6943 15.3046C20.8343 15.0186 20.9443 14.7356 20.9843 14.4246C21.0797 13.7016 20.8841 12.9704 20.4403 12.3916C20.2093 12.0906 19.9083 11.8716 19.5683 11.6576C19.4416 11.5827 19.336 11.4767 19.2614 11.3497C19.1869 11.2227 19.1459 11.0789 19.1423 10.9316C19.1423 10.6536 19.2943 10.3776 19.5683 10.2056C19.9083 9.99164 20.2083 9.77264 20.4403 9.47164C20.6602 9.18516 20.8215 8.85817 20.915 8.50935C21.0086 8.16052 21.0324 7.7967 20.9853 7.43864C20.9377 7.13135 20.8398 6.83402 20.6953 6.55864C20.5246 6.22639 20.3435 5.89956 20.1523 5.57864L20.1273 5.53464C19.9447 5.20873 19.7519 4.88857 19.5493 4.57464C19.383 4.31226 19.1746 4.07913 18.9323 3.88464C18.6459 3.66458 18.319 3.5031 17.9702 3.40942C17.6213 3.31573 17.2575 3.29168 16.8993 3.33864C16.5233 3.38864 16.1833 3.53864 15.8273 3.72764C15.6992 3.7995 15.5549 3.83765 15.408 3.83852C15.2611 3.8394 15.1163 3.80297 14.9873 3.73264C14.8615 3.65616 14.7573 3.54894 14.6843 3.42106C14.6114 3.29318 14.5722 3.14885 14.5703 3.00164C14.5553 2.59964 14.5163 2.22964 14.3703 1.87964C14.2323 1.54589 14.0298 1.24261 13.7745 0.987127C13.5191 0.731642 13.216 0.528954 12.8823 0.390641C12.5923 0.270641 12.2923 0.223641 11.9753 0.202641C11.6713 0.181641 11.3003 0.181641 10.8553 0.181641H10.8053ZM9.35234 1.77664C9.42934 1.74464 9.54634 1.71564 9.78734 1.69864C10.0343 1.68164 10.3543 1.68164 10.8303 1.68164C11.3063 1.68164 11.6263 1.68164 11.8733 1.69864C12.1143 1.71564 12.2313 1.74464 12.3083 1.77664C12.6153 1.90364 12.8583 2.14664 12.9853 2.45364C13.0253 2.54964 13.0583 2.70064 13.0713 3.05764C13.1013 3.84964 13.5103 4.61264 14.2363 5.03164C14.9623 5.45164 15.8273 5.42364 16.5283 5.05364C16.8443 4.88664 16.9913 4.83964 17.0953 4.82664C17.4239 4.78323 17.7563 4.87207 18.0193 5.07364C18.0853 5.12464 18.1693 5.21164 18.3043 5.41164C18.4433 5.61764 18.6033 5.89464 18.8413 6.30664C19.0793 6.71864 19.2383 6.99664 19.3473 7.21864C19.4543 7.43564 19.4873 7.55164 19.4973 7.63464C19.5408 7.96321 19.4519 8.29556 19.2503 8.55864C19.1863 8.64164 19.0723 8.74564 18.7703 8.93564C18.0983 9.35764 17.6423 10.0936 17.6423 10.9316C17.6423 11.7696 18.0983 12.5056 18.7703 12.9276C19.0723 13.1176 19.1863 13.2216 19.2503 13.3046C19.4523 13.5676 19.5403 13.8996 19.4973 14.2286C19.4873 14.3116 19.4533 14.4286 19.3473 14.6446C19.2383 14.8676 19.0793 15.1446 18.8413 15.5566C18.6033 15.9686 18.4423 16.2456 18.3043 16.4516C18.1693 16.6516 18.0853 16.7386 18.0193 16.7896C17.7563 16.9912 17.4239 17.0801 17.0953 17.0366C16.9913 17.0236 16.8453 16.9766 16.5283 16.8096C15.8283 16.4396 14.9623 16.4116 14.2363 16.8306C13.5103 17.2506 13.1013 18.0136 13.0713 18.8056C13.0583 19.1626 13.0253 19.3136 12.9853 19.4096C12.9225 19.5614 12.8304 19.6994 12.7142 19.8155C12.5981 19.9317 12.4601 20.0238 12.3083 20.0866C12.2313 20.1186 12.1143 20.1476 11.8733 20.1646C11.6263 20.1816 11.3063 20.1816 10.8303 20.1816C10.3543 20.1816 10.0343 20.1816 9.78734 20.1646C9.54634 20.1476 9.42934 20.1186 9.35234 20.0866C9.20055 20.0238 9.06262 19.9317 8.94646 19.8155C8.83029 19.6994 8.73816 19.5614 8.67534 19.4096C8.63534 19.3136 8.60234 19.1626 8.58934 18.8056C8.55934 18.0136 8.15034 17.2506 7.42434 16.8316C6.69834 16.4116 5.83334 16.4396 5.13234 16.8096C4.81634 16.9766 4.66934 17.0236 4.56534 17.0366C4.23678 17.0801 3.90442 16.9912 3.64134 16.7896C3.57534 16.7386 3.49134 16.6516 3.35634 16.4516C3.16825 16.1589 2.98917 15.8604 2.81934 15.5566C2.58134 15.1446 2.42234 14.8666 2.31334 14.6446C2.20634 14.4276 2.17334 14.3116 2.16334 14.2286C2.11993 13.9001 2.20877 13.5677 2.41034 13.3046C2.47434 13.2216 2.58834 13.1176 2.89034 12.9276C3.56234 12.5056 4.01834 11.7696 4.01834 10.9316C4.01834 10.0936 3.56234 9.35764 2.89034 8.93564C2.58834 8.74564 2.47434 8.64164 2.41034 8.55864C2.20877 8.29556 2.11993 7.96321 2.16334 7.63464C2.17334 7.55164 2.20734 7.43464 2.31334 7.21864C2.42234 6.99564 2.58134 6.71864 2.81934 6.30664C3.05734 5.89464 3.21834 5.61764 3.35634 5.41164C3.49134 5.21164 3.57534 5.12464 3.64134 5.07364C3.90442 4.87207 4.23678 4.78323 4.56534 4.82664C4.66934 4.83964 4.81534 4.88664 5.13234 5.05364C5.83234 5.42364 6.69834 5.45164 7.42434 5.03164C8.15034 4.61264 8.55934 3.84964 8.58934 3.05764C8.60234 2.70064 8.63534 2.54964 8.67534 2.45364C8.80234 2.14664 9.04534 1.90364 9.35234 1.77664Z" fill="#F5F7FB"/>
</g>
</svg>
