<svg width="24" height="24" viewBox="0 0 24 24" fill="none" xmlns="http://www.w3.org/2000/svg">
<g id="octicon:people-24">
<path id="Vector" d="M3.49999 8.00001C3.50019 7.05193 3.74546 6.11999 4.21201 5.29464C4.67855 4.4693 5.35053 3.77856 6.16273 3.28948C6.97492 2.80039 7.89976 2.52957 8.84748 2.50328C9.7952 2.47699 10.7336 2.69613 11.5717 3.13943C12.4097 3.58274 13.119 4.23516 13.6306 5.03337C14.1421 5.83159 14.4387 6.74849 14.4915 7.69511C14.5442 8.64172 14.3514 9.5859 13.9317 10.436C13.5119 11.2861 12.8796 12.0133 12.096 12.547C13.7835 13.1659 15.2472 14.2757 16.2986 15.7335C17.3501 17.1913 17.9412 18.9304 17.996 20.727C17.9937 20.9207 17.9166 21.106 17.7808 21.2442C17.6451 21.3824 17.4612 21.4628 17.2676 21.4687C17.0739 21.4745 16.8855 21.4052 16.7418 21.2754C16.598 21.1456 16.5099 20.9652 16.496 20.772C16.4364 18.8235 15.6205 16.9747 14.2212 15.6174C12.8218 14.2602 10.9489 13.5011 8.99949 13.5011C7.05004 13.5011 5.17718 14.2602 3.77782 15.6174C2.37845 16.9747 1.56254 18.8235 1.50299 20.772C1.49298 20.9678 1.40667 21.152 1.26255 21.2849C1.11843 21.4179 0.927967 21.4891 0.731962 21.4834C0.535957 21.4776 0.350001 21.3954 0.21393 21.2542C0.0778594 21.113 0.00249738 20.9241 0.00398901 20.728C0.0585404 18.9312 0.649596 17.1919 1.70107 15.7339C2.75255 14.2759 4.21633 13.166 5.90399 12.547C5.16282 12.0427 4.55628 11.3646 4.13726 10.5721C3.71824 9.77954 3.49946 8.89651 3.49999 8.00001ZM8.99999 4.00001C7.93912 4.00001 6.92171 4.42144 6.17156 5.17159C5.42142 5.92173 4.99999 6.93915 4.99999 8.00001C4.99999 9.06088 5.42142 10.0783 6.17156 10.8284C6.92171 11.5786 7.93912 12 8.99999 12C10.0609 12 11.0783 11.5786 11.8284 10.8284C12.5786 10.0783 13 9.06088 13 8.00001C13 6.93915 12.5786 5.92173 11.8284 5.17159C11.0783 4.42144 10.0609 4.00001 8.99999 4.00001ZM17.29 8.00001C17.142 8.00001 16.998 8.01001 16.856 8.03001C16.7568 8.04777 16.6551 8.04537 16.5569 8.02296C16.4588 8.00055 16.3661 7.9586 16.2845 7.8996C16.2028 7.8406 16.1339 7.76576 16.0818 7.67955C16.0298 7.59334 15.9956 7.49753 15.9813 7.39782C15.9671 7.29811 15.9731 7.19656 15.9989 7.09922C16.0248 7.00187 16.07 6.91074 16.1318 6.83124C16.1937 6.75174 16.2709 6.68552 16.3589 6.63651C16.4469 6.58751 16.5438 6.55673 16.644 6.54601C17.6386 6.40222 18.6527 6.59321 19.5269 7.08894C20.401 7.58466 21.0855 8.35698 21.4726 9.28434C21.8597 10.2117 21.9275 11.2415 21.6652 12.2116C21.403 13.1816 20.8256 14.037 20.024 14.643C21.2024 15.1707 22.2029 16.028 22.9049 17.1116C23.6068 18.1953 23.9802 19.4589 23.98 20.75C23.98 20.9489 23.901 21.1397 23.7603 21.2803C23.6197 21.421 23.4289 21.5 23.23 21.5C23.0311 21.5 22.8403 21.421 22.6997 21.2803C22.559 21.1397 22.48 20.9489 22.48 20.75C22.4799 19.6342 22.1203 18.548 21.4546 17.6525C20.7889 16.757 19.8525 16.0997 18.784 15.778L18.25 15.618V13.942L18.66 13.733C19.2677 13.4252 19.754 12.9215 20.0403 12.3033C20.3266 11.685 20.3962 10.9884 20.2378 10.3258C20.0795 9.66315 19.7024 9.07323 19.1676 8.65124C18.6327 8.22925 17.9713 7.99983 17.29 8.00001Z" fill="#F5F7FB"/>
</g>
</svg>
