<svg width="24" height="24" viewBox="0 0 24 24" fill="none" xmlns="http://www.w3.org/2000/svg">
<g id="octicon:people-24">
<path id="Vector" d="M3.49999 8C3.50019 7.05191 3.74546 6.11998 4.21201 5.29463C4.67855 4.46928 5.35053 3.77855 6.16273 3.28946C6.97492 2.80038 7.89976 2.52955 8.84748 2.50326C9.7952 2.47697 10.7336 2.69611 11.5717 3.13942C12.4097 3.58272 13.119 4.23514 13.6306 5.03336C14.1421 5.83157 14.4387 6.74848 14.4915 7.69509C14.5442 8.64171 14.3514 9.58589 13.9317 10.436C13.5119 11.2861 12.8796 12.0133 12.096 12.547C13.7835 13.1659 15.2472 14.2757 16.2986 15.7335C17.3501 17.1913 17.9412 18.9304 17.996 20.727C17.9937 20.9207 17.9166 21.106 17.7808 21.2442C17.6451 21.3824 17.4612 21.4628 17.2676 21.4686C17.0739 21.4744 16.8855 21.4052 16.7418 21.2754C16.598 21.1456 16.5099 20.9652 16.496 20.772C16.4364 18.8235 15.6205 16.9747 14.2212 15.6174C12.8218 14.2602 10.9489 13.5011 8.99949 13.5011C7.05004 13.5011 5.17718 14.2602 3.77782 15.6174C2.37845 16.9747 1.56254 18.8235 1.50299 20.772C1.49298 20.9678 1.40667 21.152 1.26255 21.2849C1.11843 21.4179 0.927967 21.4891 0.731962 21.4834C0.535957 21.4776 0.350001 21.3953 0.21393 21.2541C0.0778594 21.113 0.00249738 20.9241 0.00398901 20.728C0.0585404 18.9312 0.649596 17.1919 1.70107 15.7339C2.75255 14.2759 4.21633 13.166 5.90399 12.547C5.16282 12.0426 4.55628 11.3646 4.13726 10.5721C3.71824 9.77952 3.49946 8.8965 3.49999 8ZM8.99999 4C7.93912 4 6.92171 4.42143 6.17156 5.17157C5.42142 5.92172 4.99999 6.93913 4.99999 8C4.99999 9.06086 5.42142 10.0783 6.17156 10.8284C6.92171 11.5786 7.93912 12 8.99999 12C10.0609 12 11.0783 11.5786 11.8284 10.8284C12.5786 10.0783 13 9.06086 13 8C13 6.93913 12.5786 5.92172 11.8284 5.17157C11.0783 4.42143 10.0609 4 8.99999 4ZM17.29 8C17.142 8 16.998 8.01 16.856 8.03C16.7568 8.04775 16.6551 8.04535 16.5569 8.02295C16.4588 8.00054 16.3661 7.95859 16.2845 7.89958C16.2028 7.84058 16.1339 7.76575 16.0818 7.67954C16.0298 7.59333 15.9956 7.49751 15.9813 7.39781C15.9671 7.2981 15.9731 7.19655 15.9989 7.0992C16.0248 7.00186 16.07 6.91072 16.1318 6.83122C16.1937 6.75173 16.2709 6.6855 16.3589 6.6365C16.4469 6.58749 16.5438 6.55672 16.644 6.546C17.6386 6.4022 18.6527 6.5932 19.5269 7.08892C20.401 7.58465 21.0855 8.35696 21.4726 9.28432C21.8597 10.2117 21.9275 11.2414 21.6652 12.2115C21.403 13.1816 20.8256 14.037 20.024 14.643C21.2024 15.1706 22.2029 16.028 22.9049 17.1116C23.6068 18.1953 23.9802 19.4589 23.98 20.75C23.98 20.9489 23.901 21.1397 23.7603 21.2803C23.6197 21.421 23.4289 21.5 23.23 21.5C23.0311 21.5 22.8403 21.421 22.6997 21.2803C22.559 21.1397 22.48 20.9489 22.48 20.75C22.4799 19.6341 22.1203 18.548 21.4546 17.6525C20.7889 16.757 19.8525 16.0997 18.784 15.778L18.25 15.618V13.942L18.66 13.733C19.2677 13.4251 19.754 12.9215 20.0403 12.3032C20.3266 11.685 20.3962 10.9884 20.2378 10.3258C20.0795 9.66313 19.7024 9.07321 19.1676 8.65122C18.6327 8.22924 17.9713 7.99982 17.29 8Z" fill="#F5F7FB"/>
</g>
</svg>
