<svg width="25" height="25" viewBox="0 0 25 25" fill="none" xmlns="http://www.w3.org/2000/svg">
<g id="ph:triangle-bold">
<path id="Vector" d="M23.176 17.7853L14.9776 3.54748C14.7401 3.14137 14.4004 2.80451 13.9924 2.57041C13.5843 2.33631 13.1221 2.21313 12.6516 2.21313C12.1812 2.21313 11.7189 2.33631 11.3109 2.57041C10.9028 2.80451 10.5631 3.14137 10.3257 3.54748L2.12725 17.7853C1.89683 18.1794 1.77539 18.6277 1.77539 19.0842C1.77539 19.5407 1.89683 19.989 2.12725 20.3831C2.36208 20.7912 2.70127 21.1296 3.11001 21.3633C3.51875 21.5971 3.98233 21.7179 4.45318 21.7134H20.8501C21.3206 21.7176 21.7838 21.5966 22.1922 21.3629C22.6006 21.1291 22.9394 20.791 23.1741 20.3831C23.4048 19.9892 23.5266 19.541 23.5269 19.0845C23.5272 18.6279 23.4061 18.1796 23.176 17.7853ZM21.226 19.2572C21.1879 19.3221 21.1329 19.3756 21.0669 19.4119C21.0009 19.4482 20.9263 19.466 20.851 19.4634H4.45318C4.3779 19.466 4.3033 19.4482 4.2373 19.4119C4.17129 19.3756 4.11631 19.3221 4.07818 19.2572C4.04584 19.2046 4.02872 19.1441 4.02872 19.0823C4.02872 19.0206 4.04584 18.9601 4.07818 18.9075L12.2766 4.66967C12.3169 4.60677 12.3724 4.55501 12.4379 4.51916C12.5034 4.48331 12.5769 4.46452 12.6516 4.46452C12.7263 4.46452 12.7998 4.48331 12.8653 4.51916C12.9309 4.55501 12.9863 4.60677 13.0266 4.66967L21.2251 18.9075C21.2575 18.96 21.2748 19.0205 21.275 19.0822C21.2752 19.1439 21.2582 19.2045 21.226 19.2572Z" fill="#F5F7FB"/>
</g>
</svg>
