<svg width="24" height="24" viewBox="0 0 24 24" fill="none" xmlns="http://www.w3.org/2000/svg">
<g id="ph:triangle-bold">
<path id="Vector" d="M22.5244 17.4469L14.3259 3.20907C14.0885 2.80296 13.7488 2.4661 13.3408 2.232C12.9327 1.9979 12.4705 1.87473 12 1.87473C11.5296 1.87473 11.0673 1.9979 10.6593 2.232C10.2512 2.4661 9.91154 2.80296 9.67407 3.20907L1.47564 17.4469C1.24522 17.841 1.12378 18.2893 1.12378 18.7458C1.12378 19.2023 1.24522 19.6506 1.47564 20.0447C1.71047 20.4528 2.04966 20.7911 2.4584 21.0249C2.86714 21.2587 3.33072 21.3795 3.80157 21.375H20.1985C20.669 21.3792 21.1322 21.2582 21.5406 21.0245C21.9489 20.7907 22.2878 20.4526 22.5225 20.0447C22.7532 19.6508 22.875 19.2026 22.8753 18.746C22.8756 18.2895 22.7545 17.8411 22.5244 17.4469ZM20.5744 18.9188C20.5363 18.9837 20.4813 19.0372 20.4153 19.0735C20.3493 19.1098 20.2747 19.1276 20.1994 19.125H3.80157C3.72628 19.1276 3.65169 19.1098 3.58568 19.0735C3.51968 19.0372 3.4647 18.9837 3.42657 18.9188C3.39423 18.8662 3.37711 18.8057 3.37711 18.7439C3.37711 18.6822 3.39423 18.6217 3.42657 18.5691L11.625 4.33126C11.6653 4.26836 11.7208 4.2166 11.7863 4.18075C11.8518 4.1449 11.9253 4.12611 12 4.12611C12.0747 4.12611 12.1482 4.1449 12.2137 4.18075C12.2793 4.2166 12.3347 4.26836 12.375 4.33126L20.5735 18.5691C20.6059 18.6216 20.6232 18.682 20.6234 18.7438C20.6235 18.8055 20.6066 18.8661 20.5744 18.9188Z" fill="#F5F7FB"/>
</g>
</svg>
