<svg width="25" height="25" viewBox="0 0 25 25" fill="none" xmlns="http://www.w3.org/2000/svg">
<g id="ph:tree-structure-fill">
<path id="Vector" d="M15.6519 15.2793H17.1519V14.5293C17.1519 14.1315 16.9938 13.7499 16.7125 13.4686C16.4312 13.1873 16.0497 13.0293 15.6519 13.0293H9.65186C9.25403 13.0293 8.8725 13.1873 8.5912 13.4686C8.30989 13.7499 8.15186 14.1315 8.15186 14.5293V15.2793L9.65186 15.2793C10.0497 15.2793 10.4312 15.4373 10.7125 15.7186C10.9938 15.9999 11.1519 16.3815 11.1519 16.7793V21.2793C11.1519 21.6771 10.9938 22.0587 10.7125 22.34C10.4312 22.6213 10.0497 22.7793 9.65186 22.7793H5.15186C4.75403 22.7793 4.3725 22.6213 4.0912 22.34C3.80989 22.0587 3.65186 21.6771 3.65186 21.2793V16.7793C3.65186 16.3815 3.80989 15.9999 4.0912 15.7186C4.3725 15.4373 4.75403 15.2793 5.15186 15.2793H6.65186V14.5293C6.65186 13.7336 6.96793 12.9706 7.53054 12.408C8.09315 11.8454 8.85621 11.5293 9.65186 11.5293H11.9019V8.5293H11.1519C10.754 8.5293 10.3725 8.37126 10.0912 8.08996C9.80989 7.80865 9.65186 7.42712 9.65186 7.0293L9.65186 4.0293C9.65186 3.63147 9.80989 3.24994 10.0912 2.96864C10.3725 2.68733 10.754 2.5293 11.1519 2.5293L14.1519 2.5293C14.5497 2.5293 14.9312 2.68733 15.2125 2.96864C15.4938 3.24994 15.6519 3.63147 15.6519 4.0293V7.0293C15.6519 7.42712 15.4938 7.80865 15.2125 8.08996C14.9312 8.37126 14.5497 8.5293 14.1519 8.5293H13.4019V11.5293H15.6519C16.4475 11.5293 17.2106 11.8454 17.7732 12.408C18.3358 12.9706 18.6519 13.7336 18.6519 14.5293V15.2793H20.1519C20.5497 15.2793 20.9312 15.4373 21.2125 15.7186C21.4938 15.9999 21.6519 16.3815 21.6519 16.7793V21.2793C21.6519 21.6771 21.4938 22.0587 21.2125 22.34C20.9312 22.6213 20.5497 22.7793 20.1519 22.7793H15.6519C15.254 22.7793 14.8725 22.6213 14.5912 22.34C14.3099 22.0587 14.1519 21.6771 14.1519 21.2793V16.7793C14.1519 16.3815 14.3099 15.9999 14.5912 15.7186C14.8725 15.4373 15.254 15.2793 15.6519 15.2793Z" fill="#F5F7FB"/>
</g>
</svg>
