<svg width="24" height="24" viewBox="0 0 24 24" fill="none" xmlns="http://www.w3.org/2000/svg">
<g id="ph:tree-structure-fill">
<path id="Vector" d="M15 15H16.5V14.25C16.5 13.8522 16.342 13.4706 16.0607 13.1893C15.7794 12.908 15.3978 12.75 15 12.75H9C8.60218 12.75 8.22065 12.908 7.93934 13.1893C7.65804 13.4706 7.5 13.8522 7.5 14.25V15L9 15C9.39782 15 9.77936 15.158 10.0607 15.4393C10.342 15.7206 10.5 16.1022 10.5 16.5V21C10.5 21.3978 10.342 21.7794 10.0607 22.0607C9.77936 22.342 9.39782 22.5 9 22.5H4.5C4.10218 22.5 3.72065 22.342 3.43934 22.0607C3.15804 21.7794 3 21.3978 3 21V16.5C3 16.1022 3.15804 15.7206 3.43934 15.4393C3.72065 15.158 4.10218 15 4.5 15H6V14.25C6 13.4543 6.31607 12.6913 6.87868 12.1287C7.44129 11.5661 8.20435 11.25 9 11.25H11.25V8.25H10.5C10.1022 8.25 9.72065 8.09196 9.43934 7.81066C9.15804 7.52936 9 7.14782 9 6.75L9 3.75C9 3.35218 9.15804 2.97064 9.43934 2.68934C9.72065 2.40804 10.1022 2.25 10.5 2.25L13.5 2.25C13.8978 2.25 14.2794 2.40804 14.5607 2.68934C14.842 2.97064 15 3.35218 15 3.75V6.75C15 7.14782 14.842 7.52936 14.5607 7.81066C14.2794 8.09196 13.8978 8.25 13.5 8.25H12.75V11.25H15C15.7956 11.25 16.5587 11.5661 17.1213 12.1287C17.6839 12.6913 18 13.4543 18 14.25V15H19.5C19.8978 15 20.2794 15.158 20.5607 15.4393C20.842 15.7206 21 16.1022 21 16.5V21C21 21.3978 20.842 21.7794 20.5607 22.0607C20.2794 22.342 19.8978 22.5 19.5 22.5H15C14.6022 22.5 14.2206 22.342 13.9393 22.0607C13.658 21.7794 13.5 21.3978 13.5 21V16.5C13.5 16.1022 13.658 15.7206 13.9393 15.4393C14.2206 15.158 14.6022 15 15 15Z" fill="#F5F7FB"/>
</g>
</svg>
