<svg width="19" height="20" viewBox="0 0 19 20" fill="none" xmlns="http://www.w3.org/2000/svg">
<path id="Vector" fill-rule="evenodd" clip-rule="evenodd" d="M8.36674 0.628648C12.8998 0.588561 16.6067 4.27988 16.6462 8.87344C16.6631 10.8371 16.0072 12.6477 14.8964 14.0804L18.277 17.4477C18.6363 17.8055 18.6413 18.3906 18.2883 18.7547C17.9624 19.0907 17.4453 19.1209 17.0851 18.8422L16.9986 18.7661L13.6171 15.3997C12.2228 16.5501 10.4478 17.2463 8.51 17.2634C3.97692 17.3035 0.270063 13.6122 0.230503 9.01861C0.190944 4.42505 3.83366 0.668736 8.36674 0.628648ZM8.38266 2.47695C4.85693 2.50813 2.0237 5.42971 2.05447 9.00248C2.08524 12.5752 4.96835 15.4463 8.49408 15.4151C12.0198 15.3839 14.853 12.4623 14.8223 8.88957C14.7915 5.3168 11.9084 2.44578 8.38266 2.47695Z" fill="black" fill-opacity="0.5"/>
</svg>
