<svg width="20" height="20" viewBox="0 0 20 20" fill="none" xmlns="http://www.w3.org/2000/svg">
<path id="Union" fill-rule="evenodd" clip-rule="evenodd" d="M1.42857 0C1.04969 0 0.686328 0.15051 0.418419 0.418419C0.15051 0.686328 0 1.04969 0 1.42857L0 10C0 10.3789 0.15051 10.7422 0.418419 11.0102C0.686328 11.2781 1.04969 11.4286 1.42857 11.4286H7.14286C7.52174 11.4286 7.8851 11.2781 8.15301 11.0102C8.42092 10.7422 8.57143 10.3789 8.57143 10V1.42857C8.57143 1.04969 8.42092 0.686328 8.15301 0.418419C7.8851 0.15051 7.52174 0 7.14286 0L1.42857 0ZM11.4286 1.42857C11.4286 1.04969 11.5791 0.686328 11.847 0.418419C12.1149 0.15051 12.4783 0 12.8571 0L18.5714 0C18.9503 0 19.3137 0.15051 19.5816 0.418419C19.8495 0.686328 20 1.04969 20 1.42857V4.3C20 4.67888 19.8495 5.04224 19.5816 5.31015C19.3137 5.57806 18.9503 5.72857 18.5714 5.72857H12.8571C12.4783 5.72857 12.1149 5.57806 11.847 5.31015C11.5791 5.04224 11.4286 4.67888 11.4286 4.3V1.42857ZM11.4286 10C11.4286 9.62112 11.5791 9.25776 11.847 8.98985C12.1149 8.72194 12.4783 8.57143 12.8571 8.57143H18.5714C18.9503 8.57143 19.3137 8.72194 19.5816 8.98985C19.8495 9.25776 20 9.62112 20 10V18.5714C20 18.9503 19.8495 19.3137 19.5816 19.5816C19.3137 19.8495 18.9503 20 18.5714 20H12.8571C12.4783 20 12.1149 19.8495 11.847 19.5816C11.5791 19.3137 11.4286 18.9503 11.4286 18.5714V10ZM0 15.7C0 15.3211 0.15051 14.9578 0.418419 14.6898C0.686328 14.4219 1.04969 14.2714 1.42857 14.2714H7.14286C7.52174 14.2714 7.8851 14.4219 8.15301 14.6898C8.42092 14.9578 8.57143 15.3211 8.57143 15.7V18.5714C8.57143 18.9503 8.42092 19.3137 8.15301 19.5816C7.8851 19.8495 7.52174 20 7.14286 20H1.42857C1.04969 20 0.686328 19.8495 0.418419 19.5816C0.15051 19.3137 0 18.9503 0 18.5714L0 15.7Z" fill="white"/>
</svg>
