<svg width="21" height="21" viewBox="0 0 21 21" fill="none" xmlns="http://www.w3.org/2000/svg">
<path fill-rule="evenodd" clip-rule="evenodd" d="M2.08043 0.363281C1.70155 0.363281 1.33818 0.513791 1.07027 0.7817C0.802365 1.04961 0.651855 1.41297 0.651855 1.79185L0.651855 10.3633C0.651855 10.7422 0.802365 11.1055 1.07027 11.3734C1.33818 11.6413 1.70155 11.7919 2.08043 11.7919H7.79471C8.17359 11.7919 8.53696 11.6413 8.80486 11.3734C9.07277 11.1055 9.22328 10.7422 9.22328 10.3633V1.79185C9.22328 1.41297 9.07277 1.04961 8.80486 0.7817C8.53696 0.513791 8.17359 0.363281 7.79471 0.363281L2.08043 0.363281ZM12.0804 1.79185C12.0804 1.41297 12.2309 1.04961 12.4988 0.7817C12.7668 0.513791 13.1301 0.363281 13.509 0.363281H19.2233C19.6022 0.363281 19.9655 0.513791 20.2334 0.7817C20.5013 1.04961 20.6519 1.41297 20.6519 1.79185V4.66328C20.6519 5.04216 20.5013 5.40552 20.2334 5.67343C19.9655 5.94134 19.6022 6.09185 19.2233 6.09185H13.509C13.1301 6.09185 12.7668 5.94134 12.4988 5.67343C12.2309 5.40552 12.0804 5.04216 12.0804 4.66328V1.79185ZM12.0804 10.3633C12.0804 9.9844 12.2309 9.62104 12.4988 9.35313C12.7668 9.08522 13.1301 8.93471 13.509 8.93471H19.2233C19.6022 8.93471 19.9655 9.08522 20.2334 9.35313C20.5013 9.62104 20.6519 9.9844 20.6519 10.3633V18.9347C20.6519 19.3136 20.5013 19.677 20.2334 19.9449C19.9655 20.2128 19.6022 20.3633 19.2233 20.3633H13.509C13.1301 20.3633 12.7668 20.2128 12.4988 19.9449C12.2309 19.677 12.0804 19.3136 12.0804 18.9347V10.3633ZM0.651855 16.0633C0.651855 15.6844 0.802365 15.321 1.07027 15.0531C1.33818 14.7852 1.70155 14.6347 2.08043 14.6347H7.79471C8.17359 14.6347 8.53696 14.7852 8.80486 15.0531C9.07277 15.321 9.22328 15.6844 9.22328 16.0633V18.9347C9.22328 19.3136 9.07277 19.677 8.80486 19.9449C8.53696 20.2128 8.17359 20.3633 7.79471 20.3633H2.08043C1.70155 20.3633 1.33818 20.2128 1.07027 19.9449C0.802365 19.677 0.651855 19.3136 0.651855 18.9347L0.651855 16.0633Z" fill="white"/>
</svg>
