<svg width="18" height="18" viewBox="0 0 18 18" fill="none" xmlns="http://www.w3.org/2000/svg">
<path id="Vector" d="M13.18 16.6L11.17 13.12C12.15 12.4 12.83 11.28 12.97 10H17C16.9175 11.3207 16.5295 12.6042 15.8666 13.7495C15.2037 14.8947 14.2841 15.8705 13.18 16.6ZM10 4.03V0C14.3 0.26 17.74 3.7 18 8H13.97C13.8584 6.98546 13.4042 6.03928 12.6825 5.31756C11.9607 4.59584 11.0146 4.14168 10 4.03ZM4.00003 9.5C4.00003 10.14 4.13003 10.75 4.38003 11.3L0.90003 13.31C0.304854 12.1283 -0.00347918 10.8231 2.96148e-05 9.5C2.96148e-05 4.97 3.54003 1.27 8.00003 1V5.03C5.75003 5.28 4.00003 7.18 4.00003 9.5ZM8.50003 18C5.53003 18 2.92003 16.5 1.40003 14.18L4.88003 12.17C5.29638 12.7389 5.84137 13.2012 6.4705 13.5193C7.09964 13.8373 7.79508 14.002 8.50003 14C9.14003 14 9.75003 13.87 10.3 13.62L12.31 17.1C11.16 17.68 9.87003 18 8.50003 18Z" fill="#F5F7FB"/>
</svg>
