<svg width="19" height="19" viewBox="0 0 19 19" fill="none" xmlns="http://www.w3.org/2000/svg">
<path id="Vector" d="M13.8319 16.8417L11.8219 13.3617C12.8019 12.6417 13.4819 11.5217 13.6219 10.2417H17.6519C17.5693 11.5624 17.1813 12.8459 16.5185 13.9912C15.8556 15.1364 14.9359 16.1122 13.8319 16.8417ZM10.6519 4.2717V0.241699C14.9519 0.501699 18.3919 3.9417 18.6519 8.2417H14.6219C14.5102 7.22716 14.056 6.28098 13.3343 5.55926C12.6126 4.83753 11.6664 4.38338 10.6519 4.2717ZM4.65189 9.7417C4.65189 10.3817 4.78189 10.9917 5.03189 11.5417L1.55189 13.5517C0.95671 12.37 0.648376 11.0648 0.651885 9.7417C0.651885 5.2117 4.19188 1.5117 8.65189 1.2417V5.2717C6.40189 5.5217 4.65189 7.4217 4.65189 9.7417ZM9.15189 18.2417C6.18188 18.2417 3.57189 16.7417 2.05189 14.4217L5.53189 12.4117C5.94823 12.9806 6.49322 13.4429 7.12236 13.761C7.75149 14.079 8.44693 14.2437 9.15189 14.2417C9.79189 14.2417 10.4019 14.1117 10.9519 13.8617L12.9619 17.3417C11.8119 17.9217 10.5219 18.2417 9.15189 18.2417Z" fill="#F5F7FB"/>
</svg>
